<svg viewBox="0 0 1200 1202" xmlns="http://www.w3.org/2000/svg" xml:space="preserve" style="fill-rule:evenodd;clip-rule:evenodd;stroke-linejoin:round;stroke-miterlimit:2"><path d="M2996.91 483.508V1673.4c0 266.85-216.66 483.51-483.51 483.51H1326.6c-266.85 0-483.507-216.66-483.507-483.51V483.508C843.093 216.653 1059.75 0 1326.6 0h1186.8c266.85 0 483.51 216.653 483.51 483.508" style="fill:#d20a0a" transform="translate(-469.73)scale(.55715)"/><path d="M1990.17 1298.75c145.94 82.13 267.55 132.98 449.7 128.03 115.91-3.15 220.98-41.03 314.19-116.92v42.96c-215.88 253.5-538.8 222.76-944.87-28.83l-25.33 171.27c-201.73-3.33-347.63-68.25-334.82-207.95 8.88-96.93 101.74-141.51 249.74-128.44l9.42-63.69c-102.16-7.03-180.75 17.05-239.53 63.69-68.15 54.08-108.91 136.36-116.6 201.76-8.76 74.54-57.49 137.12-126.19 135.55h-45.63c27.77-39.51 42.83-79.71 49.84-123.57l50.61-316.52c-37.77 39.09-75.53 63.17-113.3 79.59-42.79 16.63-60.07 14.67-83.69-8.85 72.82-39.08 156.14-141.752 232.78-277.214-32.46.972-59.76 1.471-78.75 1.259-27.09-.302-55.31-29.42-58.35-60.106-1.06-10.639 2.89-31.942 2.89-31.942s28.67 21.921 55.46 21.921c25.9 0 67.55-1.014 117.03-2.631 24.03-47.377 47.04-97.67 68.45-149.82l121.19 60.443c-16.57 28.224-33.2 56.359-50.06 84.147 117.46-4.829 239.29-10.713 296.51-14.06 46.29-2.707 100.13-16.286 100.13-16.286s-1.78 29.857-2.77 38.961c-2.98 27.495-86.39 47.018-133.29 48.876-64.01 2.537-190.26 9.098-305.26 14.129-19.5 30.254-39.49 59.786-60.2 88.227 79.79-31.63 168.1-49.043 245.83-47.032 119.87 3.101 233.19 37.337 214.01 167.038L1827 1203.61c35.22 20.54 58.98 34.7 90.46 53.14 31.54 18.36 67.71 8.12 75.08-36.73 5.57-33.89-26.17-63.25-90.29-88.69l19.35-130.85c83.69 38.35 149.7 92.58 149.21 175.2-.26 44.11-15.43 94.22-80.64 123.07m-330.41 123.98 23.5-158.91c-77.52-14.42-122.31-.31-129.67 46.42-9.93 62.95 42.97 91.39 106.17 112.49m51.6-413.99.66-9.538c-29.93-31.644-73.94-36.908-118.77-36.638-56.16.338-119.55 19.749-188.4 53.606l-20.5 133.81c55.52-87.72 201.13-153.469 327.01-141.24m240.92-215.627c106.96 55.626 151.88 137.035 120.83 227.287-37.42-40.385-86.93-76.459-139.94-98.136zm279.18 559.677c-16.86-5.8-77.59-25.13-101.16-34.81-14.32-5.88-40.21-23.24-40.21-23.24l50.12-360.94c28.04-21.215 91.22-37.016 146.48-43.213l43.83-47.928-112.57 6.321s-59.43 1.177-79.26 1.239c-59.24.186-54.46-88.024-54.46-88.024 35.93 23.663 169.91 15.166 169.91 15.166l-39.78-88.157 111.53-55.02 21.28 136.833 36.61-.969 103.88-141.751 114.38 60.25-74.09 76.208c69.5 1.463 133.53-3.983 188.96-20.333l-6.86 43.971c-4.27 27.399-64.45 40.473-170.54 45.454-34.57 1.624-89.68 2.085-89.68 2.085l-53.51 47.895c39.05-.235 145.1-7.235 190.77 47.964 22.05 26.653 26.5 72.909 11.49 176.929-6.55 45.41-36.45 236.15-36.45 236.15s-34.19 9.04-51.54 12.38c-73.74 14.21-208.66 11.47-279.13-4.46m217.53-80.05 7.52-55.14c-45.34-14.94-98.15-22.52-161.25-9.79-45.82 9.25-75.78 28.25-92.11 56.2 37.07 39.8 219.26 33.49 245.84 8.73m-152.07-131.34c19.74-6.34 66.59-13.86 104.1-16.72 47.86-3.64 53.41-3.24 68.38-1.65l5.38-39.47c-15.36-4.44-17.36-4.99-34.81-7.61-54.4-8.15-140.42.59-173.91 17.67-31.89 16.27-40.91 27.5-47.7 63.39l-3.49 22.71 23.08-13.4c12.69-7.37 39.22-18.59 58.97-24.92m-63.4-91.12c71.35-41.01 154.83-64.987 253.68-57.847-32.14-72.44-121.04-70.016-241.83-25.53z" style="fill:#fff" transform="translate(-469.73)scale(.55715)"/></svg>